<?xml version="1.0" standalone="no"?>
<!DOCTYPE svg PUBLIC "-//W3C//DTD SVG 20010904//EN"
 "http://www.w3.org/TR/2001/REC-SVG-20010904/DTD/svg10.dtd">
<svg version="1.0" xmlns="http://www.w3.org/2000/svg"
 width="512.000000pt" height="512.000000pt" viewBox="0 0 512.000000 512.000000"
 preserveAspectRatio="xMidYMid meet">

<g transform="translate(0.000000,512.000000) scale(0.100000,-0.100000)"
fill="#fff" stroke="none">
<path d="M880 4795 c-461 -85 -801 -434 -869 -892 -45 -299 57 -619 272 -859
l45 -50 -66 -29 c-123 -54 -221 -177 -251 -313 -15 -70 -16 -1894 -1 -1973 34
-180 179 -325 359 -359 74 -14 3088 -14 3162 0 114 22 227 95 288 186 67 101
74 137 80 385 l6 226 515 -254 c320 -157 526 -253 544 -253 49 0 110 36 134
79 l22 39 0 932 0 932 -22 39 c-24 43 -85 79 -134 79 -18 0 -224 -96 -544
-253 l-515 -254 -6 226 c-3 124 -10 240 -16 256 -44 128 -135 232 -245 280
l-66 29 45 50 c333 370 374 887 105 1296 -201 304 -564 488 -921 466 -212 -14
-382 -71 -555 -189 -73 -49 -198 -175 -250 -250 -22 -31 -42 -57 -46 -57 -4 0
-24 26 -46 57 -52 75 -177 201 -250 250 -119 81 -256 140 -389 169 -100 22
-294 26 -385 9z m355 -308 c269 -75 478 -288 546 -557 18 -71 18 -269 0 -340
-69 -274 -287 -492 -561 -561 -71 -18 -269 -18 -340 0 -274 69 -492 287 -561
561 -18 71 -18 269 0 340 33 130 99 248 195 348 99 104 241 185 366 211 30 6
64 13 75 15 37 9 229 -3 280 -17z m1800 0 c269 -75 478 -288 546 -557 8 -31
14 -105 14 -170 0 -123 -12 -188 -53 -285 -93 -219 -290 -387 -522 -446 -71
-18 -269 -18 -340 0 -232 59 -429 227 -522 446 -41 97 -53 162 -53 285 0 123
12 188 53 285 93 220 305 400 522 444 30 6 64 13 75 15 37 9 229 -3 280 -17z
m-1031 -1342 c25 -33 59 -77 76 -97 l32 -38 -162 0 -163 0 37 43 c20 23 55 68
78 100 23 31 45 56 49 55 4 -2 28 -30 53 -63z m1516 -455 c26 -13 47 -34 60
-60 20 -38 20 -57 20 -970 0 -913 0 -932 -20 -970 -13 -26 -34 -47 -60 -60
-39 -20 -56 -20 -1570 -20 -1514 0 -1531 0 -1570 20 -26 13 -47 34 -60 60 -20
38 -20 57 -20 970 0 913 0 932 20 970 12 24 35 47 58 59 36 20 63 20 1570 21
1517 0 1533 0 1572 -20z m1298 -1358 l-3 -328 -457 225 -458 224 0 207 0 207
458 224 457 225 3 -328 c1 -180 1 -476 0 -656z"/>
<path d="M961 4199 c-227 -44 -391 -278 -353 -505 32 -196 180 -344 376 -376
289 -48 556 219 508 508 -42 255 -281 422 -531 373z m159 -309 c45 -23 80 -80
80 -130 0 -17 -9 -49 -20 -70 -23 -45 -80 -80 -130 -80 -76 0 -150 74 -150
150 0 48 35 107 78 129 48 26 93 26 142 1z"/>
<path d="M2761 4199 c-227 -44 -391 -278 -353 -505 32 -196 180 -344 376 -376
289 -48 556 219 508 508 -42 255 -281 422 -531 373z m159 -309 c45 -23 80 -80
80 -130 0 -50 -35 -107 -80 -130 -21 -11 -53 -20 -70 -20 -50 0 -107 35 -130
80 -25 50 -25 90 0 140 37 73 124 99 200 60z"/>
<path d="M1261 2099 c-227 -44 -391 -278 -353 -505 31 -190 175 -339 361 -374
72 -14 1290 -14 1362 0 186 35 330 184 361 374 38 231 -126 461 -361 506 -66
12 -1306 12 -1370 -1z m159 -309 c45 -23 80 -80 80 -130 0 -76 -74 -150 -150
-150 -50 0 -107 35 -130 80 -25 50 -25 90 0 140 37 73 124 99 200 60z m693
-22 c-4 -24 -8 -72 -8 -108 0 -36 4 -84 8 -107 l9 -43 -172 0 -172 0 9 43 c4
23 8 71 8 107 0 36 -4 84 -8 108 l-9 42 172 0 172 0 -9 -42z m507 22 c45 -23
80 -80 80 -130 0 -76 -74 -150 -150 -150 -50 0 -107 35 -130 80 -25 50 -25 90
0 140 37 73 124 99 200 60z"/>
</g>
</svg>
