<?xml version="1.0" standalone="no"?>
<!DOCTYPE svg PUBLIC "-//W3C//DTD SVG 20010904//EN"
 "http://www.w3.org/TR/2001/REC-SVG-20010904/DTD/svg10.dtd">
<svg version="1.0" xmlns="http://www.w3.org/2000/svg"
 width="512.000000pt" height="512.000000pt" viewBox="0 0 512.000000 512.000000"
 preserveAspectRatio="xMidYMid meet">

<g transform="translate(0.000000,512.000000) scale(0.100000,-0.100000)"
fill="#fff" stroke="none">
<path d="M494 5091 c-48 -24 -101 -72 -260 -233 -179 -181 -203 -209 -219
-257 -20 -62 -16 -139 10 -192 9 -19 427 -445 928 -946 l912 -913 -240 -242
c-132 -134 -533 -538 -892 -898 -456 -459 -658 -668 -673 -700 -29 -58 -30
-149 -2 -211 14 -31 82 -106 233 -255 174 -172 223 -215 262 -229 58 -22 136
-16 198 15 31 15 310 288 937 913 l892 892 898 -897 c493 -493 912 -904 931
-913 19 -10 61 -20 93 -22 51 -5 66 -2 121 25 52 26 97 66 263 234 179 181
203 209 219 257 21 65 16 140 -13 197 -12 23 -385 403 -916 934 l-896 895 904
905 c826 828 905 909 920 954 20 63 20 109 0 172 -14 42 -45 77 -225 257 -228
228 -260 250 -359 250 -115 0 -75 37 -1050 -938 l-895 -895 -910 911 c-556
556 -925 918 -950 931 -22 11 -66 23 -100 25 -52 4 -68 1 -121 -26z"/>
</g>
</svg>
